/* XPM */
static char * cell_xpm[] = {
"64 64 13 1",
" 	c #012045",
".	c #D0AF3B",
"+	c #736442",
"@	c #2B3045",
"#	c #897541",
"$	c #002045",
"%	c #584F44",
"&	c #AA903F",
"*	c #8F7A41",
"=	c #F1CB36",
"-	c #7A6A42",
";	c #E8C337",
">	c #FFD633",
"                                                                ",
"                                                                ",
"                                                                ",
"                                                                ",
"      .+                                                        ",
"      +@                                       ##               ",
"                                               ##               ",
"           $$                                                   ",
"         $$$$$$                                                 ",
"        $$$$$$$$                @+                              ",
"        $$$$$$$$                +.                              ",
"        $$$$$$$$  $$$$                                          ",
"        $$$$$$$$ $$$$$$                                         ",
"        $$$$$$$$$$$$$$$$                                        ",
"         $$$$$$ $$$$$$$$                                        ",
"          $$$$  $$$$$$$$                                        ",
"                $$$$$$$$                                        ",
"                $$$$$$$$                                        ",
"            %&   $$$$$$                                         ",
"            %&     $$                                         *=",
"                                                              %&",
"                        -                                       ",
"                        ;                                       ",
"                                                                ",
"                                            ##                  ",
"                                            ##                  ",
"                                                                ",
"                                                                ",
"                                                                ",
"                                                                ",
"     ##                                                         ",
"     ##                                                         ",
"         ##                                                     ",
"%        ##                                                    #",
"&                      $$$$$                                   #",
"                      $$$$$$$                                   ",
"                     $$$$$$$$$                                  ",
"                     $$$$$$$$$     ;-$$                         ",
"                     $$%%$$$$$     $$$$$$                       ",
"                     $$&&$$$$$    $$$$$$$$                      ",
"                      $$$$$$$     $$$$$$$$                      ",
"                       $$$$$      $$$$$$$$                      ",
"          -                      $$$$$$$$$   %%                 ",
"          ;                       $$$$$$$$   &&                 ",
"                                   $$$$$$                       ",
"                                    $$$$                        ",
"                                                                ",
"                                                                ",
"                                       $$$$$                    ",
"                                      $$$$$$$                   ",
"                                     $$$$$$$$$                  ",
"                                     $$$$$$$$$                  ",
"                                     $$$$$$$$$                  ",
"            +@                       $$$$$$$$$                  ",
"            .+                        $$$$$$$                   ",
"                           >           $$$$$                    ",
"                                                    ##          ",
"                                                    ##          ",
"                                                                ",
"                                                                ",
"                                                                ",
"                                                                ",
"                                                                ",
"                                                                "};
